<?xml version="1.0" standalone="no"?>
<!DOCTYPE svg PUBLIC "-//W3C//DTD SVG 20010904//EN"
 "http://www.w3.org/TR/2001/REC-SVG-20010904/DTD/svg10.dtd">
<svg version="1.0" xmlns="http://www.w3.org/2000/svg"
 width="512.000000pt" height="512.000000pt" viewBox="0 0 512.000000 512.000000"
 preserveAspectRatio="xMidYMid meet">

<g transform="translate(0.000000,512.000000) scale(0.100000,-0.100000)"
fill="#000000" stroke="none">
<path d="M4514 5041 c-21 -16 -127 -117 -234 -225 l-195 -196 -1921 0 c-1248
0 -1940 -4 -1975 -10 -73 -14 -127 -53 -161 -119 l-28 -53 0 -1602 c0 -1820
-8 -1660 85 -1753 88 -88 28 -83 1062 -83 l903 0 0 -265 0 -265 -197 0 c-179
0 -201 -2 -240 -21 -54 -26 -80 -63 -93 -131 -21 -108 7 -197 79 -245 l34 -23
927 0 927 0 34 23 c72 48 100 137 79 245 -13 68 -42 109 -94 133 -35 16 -68
19 -238 19 l-198 0 0 265 0 265 409 0 c398 0 409 1 435 21 33 26 36 79 6 109
-20 20 -33 20 -1848 20 -1794 0 -1828 0 -1859 20 -53 32 -63 63 -63 205 l0
125 2410 0 2410 0 0 -127 c0 -109 -3 -133 -20 -160 -37 -62 -43 -63 -420 -63
-327 0 -341 -1 -360 -20 -30 -30 -27 -83 6 -109 26 -20 38 -21 364 -21 399 0
414 2 495 83 93 93 85 -66 85 1752 l0 1601 -26 53 c-30 60 -88 107 -143 117
-75 12 -74 11 -46 52 30 45 35 133 9 172 -25 38 -164 178 -208 211 -32 24 -49
29 -96 29 -47 0 -64 -5 -96 -29z m186 -206 l85 -85 -80 -80 -80 -80 -87 87
-88 88 77 77 c43 43 80 78 83 78 3 0 43 -38 90 -85z m-270 -270 l84 -84 -24
-26 -24 -26 -88 88 -88 87 22 23 c12 13 24 23 27 23 4 0 44 -38 91 -85z m-515
-685 l-445 -445 -87 88 -88 87 445 445 445 445 87 -87 88 -88 -445 -445z m-40
530 l-59 -60 -1288 0 c-1275 0 -1288 0 -1308 -20 -30 -30 -27 -83 6 -109 27
-21 28 -21 1232 -21 l1206 0 -275 -277 -275 -278 -92 -228 c-51 -125 -92 -239
-92 -253 0 -35 59 -94 94 -94 14 0 128 42 253 92 l228 93 126 122 126 123 32
-50 c68 -104 169 -155 299 -148 178 8 302 132 310 310 7 130 -44 231 -148 299
l-51 33 128 128 128 128 127 0 128 0 -2 -1142 c-3 -1135 -3 -1143 -23 -1146
-16 -2 -43 39 -150 225 -71 125 -140 240 -153 255 -38 45 -101 34 -120 -20
-13 -37 -4 -56 127 -281 55 -95 101 -175 101 -177 0 -2 -235 -4 -522 -4 l-523
0 -56 99 -56 98 261 452 c143 248 263 447 267 443 4 -4 59 -97 122 -207 124
-216 144 -237 196 -215 39 16 58 53 45 88 -6 15 -69 128 -140 251 -140 243
-156 261 -233 261 -37 0 -49 -5 -80 -37 -20 -21 -145 -227 -280 -461 -212
-368 -245 -421 -256 -405 -6 10 -150 259 -320 553 -169 294 -320 547 -336 563
-24 22 -38 27 -80 27 -35 0 -60 -6 -79 -20 -16 -11 -66 -86 -116 -174 l-89
-155 -5 427 c-5 469 -5 466 -69 511 -55 40 -101 42 -782 39 -697 -3 -672 -1
-727 -52 -60 -54 -57 -7 -60 -896 -2 -448 0 -840 3 -869 6 -44 14 -62 40 -88
l33 -33 502 0 c396 0 501 -3 498 -13 -2 -6 -25 -51 -53 -99 l-50 -88 -565 3
-565 2 -3 1143 -2 1142 264 0 c251 0 265 1 290 21 33 26 36 79 6 109 -19 19
-33 20 -315 20 -322 0 -334 -2 -371 -57 -18 -27 -19 -68 -22 -1211 -1 -769 1
-1196 8 -1221 5 -20 24 -50 40 -66 l31 -30 2219 0 2219 0 31 30 c16 16 35 46
40 66 7 25 9 452 8 1221 -3 1143 -4 1184 -22 1211 -29 43 -66 57 -153 57 l-77
0 59 60 59 60 83 0 c87 0 128 -10 149 -38 11 -14 13 -281 14 -1399 l0 -1383
-2410 0 -2410 0 0 1383 c1 1484 -2 1405 51 1426 15 6 714 10 1879 10 l1854 1
-59 -60z m-1831 -516 c14 -5 16 -28 16 -150 l0 -144 -665 0 -665 0 0 144 c0
106 3 146 13 149 18 8 1282 8 1301 1z m2120 -108 c84 -49 112 -164 62 -250
-67 -115 -245 -115 -312 0 -41 70 -35 87 63 186 99 99 117 105 187 64z m-832
-436 c-16 -14 -193 -82 -199 -77 -3 3 9 39 26 80 17 41 35 87 41 103 l11 28
64 -64 c36 -35 61 -67 57 -70z m-1272 -495 l0 -595 -665 0 -665 0 0 595 0 595
665 0 665 0 0 -595z m595 125 c81 -140 149 -257 150 -260 2 -3 -9 -27 -24 -54
l-28 -48 -46 80 c-54 93 -82 114 -158 120 -96 7 -124 -17 -219 -185 -29 -51
-56 -91 -60 -88 -5 3 -20 26 -34 51 -35 63 -36 150 -2 208 206 358 260 446
266 439 5 -4 74 -123 155 -263z m-59 -390 c49 -86 78 -115 125 -125 64 -14
119 11 160 74 15 24 18 18 202 -300 l187 -324 -384 -3 c-212 -1 -560 -1 -775
0 l-391 3 56 98 56 97 145 0 c212 0 233 17 233 182 l0 93 58 -3 c79 -5 100 15
188 168 38 66 75 120 81 120 7 0 33 -36 59 -80z m324 -1855 l0 -265 -360 0
-360 0 0 265 0 265 360 0 360 0 0 -265z m528 -477 l3 -58 -891 0 -890 0 0 53
c0 30 3 57 7 60 3 4 403 6 887 5 l881 -3 3 -57z"/>
<path d="M1452 3833 c-21 -8 -43 -61 -36 -88 14 -54 84 -73 122 -32 56 60 -9
151 -86 120z"/>
<path d="M1645 3815 c-14 -13 -25 -36 -25 -50 0 -33 42 -75 75 -75 33 0 75 42
75 75 0 33 -42 75 -75 75 -14 0 -37 -11 -50 -25z"/>
<path d="M1856 3819 c-66 -52 -1 -153 79 -123 8 4 23 20 31 36 13 25 13 35 3
59 -21 52 -68 63 -113 28z"/>
<path d="M1105 3264 c-38 -19 -93 -72 -101 -96 -4 -15 -16 -18 -68 -18 -76 0
-106 -21 -106 -75 0 -54 30 -75 107 -75 36 0 63 -4 63 -10 0 -21 83 -99 116
-110 95 -32 199 2 251 81 l26 39 257 0 c245 0 259 1 284 21 34 27 35 71 1 104
l-24 25 -259 0 -258 0 -31 43 c-39 56 -101 87 -174 87 -30 0 -67 -7 -84 -16z
m129 -150 c9 -8 16 -25 16 -37 -1 -65 -84 -82 -111 -23 -25 55 52 103 95 60z"/>
<path d="M1505 2834 c-38 -19 -93 -72 -101 -96 -5 -17 -23 -18 -268 -18 -250
0 -263 -1 -284 -20 -30 -28 -30 -82 0 -110 21 -19 34 -20 285 -20 172 0 263
-4 263 -10 0 -21 83 -99 116 -110 95 -32 199 2 251 81 25 38 27 39 83 39 43 0
64 5 84 21 34 27 35 71 1 104 -20 21 -34 25 -83 25 -57 0 -59 1 -89 43 -39 56
-101 87 -174 87 -30 0 -67 -7 -84 -16z m129 -150 c9 -8 16 -25 16 -37 -1 -65
-84 -82 -111 -23 -25 55 52 103 95 60z"/>
<path d="M2365 1403 c-36 -9 -55 -34 -55 -73 0 -68 8 -70 252 -70 195 0 216 2
231 18 24 27 22 85 -4 108 -19 17 -40 19 -213 21 -105 1 -200 -1 -211 -4z"/>
</g>
</svg>
