<?xml version="1.0" standalone="no"?>
<!DOCTYPE svg PUBLIC "-//W3C//DTD SVG 20010904//EN"
 "http://www.w3.org/TR/2001/REC-SVG-20010904/DTD/svg10.dtd">
<svg version="1.0" xmlns="http://www.w3.org/2000/svg"
 width="512.000000pt" height="512.000000pt" viewBox="0 0 512.000000 512.000000"
 preserveAspectRatio="xMidYMid meet">

<g transform="translate(0.000000,512.000000) scale(0.100000,-0.100000)"
fill="#000000" stroke="none">
<path d="M2000 5111 c-73 -22 -136 -78 -167 -146 -16 -35 -18 -78 -21 -375 -2
-184 -1 -358 3 -386 9 -74 58 -151 119 -189 44 -27 60 -31 150 -35 l101 -5 5
-83 c5 -76 7 -86 33 -108 20 -17 40 -24 70 -24 39 0 46 5 151 110 l110 110
257 0 c283 0 297 2 365 62 21 18 48 55 60 83 21 44 24 65 24 173 0 117 -1 124
-25 147 -29 30 -64 32 -96 6 -22 -18 -24 -28 -29 -146 -5 -124 -6 -127 -33
-151 -28 -24 -28 -24 -280 -24 -149 0 -268 -5 -292 -11 -28 -8 -58 -29 -101
-74 l-62 -64 -6 34 c-9 45 -53 90 -102 104 -21 6 -78 11 -125 11 -92 0 -119
13 -140 67 -5 13 -9 171 -9 351 0 291 2 331 18 362 9 19 28 40 42 47 19 10
145 13 523 13 l499 0 34 -34 c34 -34 34 -35 34 -125 0 -84 2 -94 25 -116 13
-14 36 -25 50 -25 14 0 37 11 50 25 23 22 25 32 25 118 0 120 -19 177 -77 233
-77 75 -70 74 -647 73 -281 0 -522 -4 -536 -8z"/>
<path d="M2253 4770 c-44 -18 -57 -86 -23 -120 19 -19 33 -20 328 -20 282 0
310 2 325 18 29 32 31 67 4 98 l-25 29 -294 2 c-161 1 -303 -2 -315 -7z"/>
<path d="M2230 4450 c-25 -25 -26 -71 -1 -101 l19 -24 307 0 307 0 24 28 c29
34 30 56 3 91 l-20 26 -310 0 c-296 0 -310 -1 -329 -20z"/>
<path d="M4789 4421 c-21 -17 -24 -29 -28 -105 l-3 -86 -77 0 c-96 0 -121 -14
-121 -70 0 -59 33 -80 126 -80 l74 0 0 -74 c0 -91 21 -126 76 -126 58 0 74 26
74 120 l0 80 70 0 c124 0 175 53 120 123 -19 24 -28 26 -103 29 l-82 3 -3 80
c-2 65 -7 84 -24 102 -26 28 -68 30 -99 4z"/>
<path d="M4060 4186 c-238 -53 -357 -302 -247 -518 l34 -66 -24 -7 c-73 -18
-170 -114 -204 -204 -19 -48 -22 -77 -23 -201 -1 -163 8 -197 67 -241 l32 -24
431 -3 430 -3 34 23 c19 13 45 39 58 58 23 34 23 41 20 200 -3 158 -4 167 -31
218 -39 75 -88 125 -155 158 -31 16 -58 29 -59 30 -2 0 11 26 27 56 80 147 53
317 -68 430 -61 57 -111 83 -187 97 -68 13 -64 13 -135 -3z m128 -148 c66 -16
135 -87 151 -154 24 -98 -20 -193 -110 -238 -29 -14 -68 -26 -87 -26 -156 0
-266 159 -203 295 25 56 77 103 131 120 57 17 61 17 118 3z m243 -603 c23 -16
53 -50 66 -74 20 -39 23 -58 23 -168 l0 -123 -385 0 -385 0 -6 26 c-4 15 -4
70 -1 124 7 134 41 196 127 234 29 13 76 15 277 13 l241 -2 43 -30z"/>
<path d="M336 4078 c-129 -17 -240 -101 -299 -226 -29 -61 -32 -76 -32 -162 0
-83 4 -103 30 -160 25 -58 57 -94 279 -318 138 -140 268 -262 288 -273 50 -25
137 -25 186 0 20 11 150 133 289 273 303 304 308 312 308 478 0 95 -3 111 -28
162 -81 164 -247 254 -422 226 -74 -11 -149 -45 -198 -88 -36 -31 -38 -31 -60
-16 -12 9 -37 28 -55 41 -75 54 -180 77 -286 63z m159 -163 c17 -7 56 -35 88
-63 91 -79 141 -78 229 4 51 47 78 62 146 75 141 28 282 -92 282 -240 -1 -99
-19 -124 -278 -383 -205 -206 -241 -238 -267 -238 -27 0 -62 32 -267 238 -129
130 -243 252 -253 271 -55 109 -12 257 93 318 72 43 151 49 227 18z"/>
<path d="M2145 3049 c-172 -25 -315 -168 -346 -346 -5 -32 -9 -157 -7 -278 l2
-220 -32 -55 c-60 -104 -41 -235 46 -311 43 -38 81 -55 145 -64 45 -7 47 -9
47 -39 0 -96 67 -240 151 -328 58 -61 60 -64 57 -112 l-3 -49 -336 -132 c-185
-72 -356 -143 -380 -157 -68 -40 -155 -138 -193 -218 -49 -101 -58 -174 -54
-417 3 -196 4 -210 26 -245 13 -21 40 -45 66 -57 41 -20 57 -21 560 -21 l517
0 24 25 c32 31 32 69 0 100 l-24 25 -311 0 -310 0 0 220 c0 207 -1 221 -20
240 -25 25 -71 26 -101 1 -24 -19 -24 -22 -27 -240 l-3 -222 -122 3 -122 3 -3
190 c-1 109 2 212 8 242 20 95 88 196 165 243 17 10 111 50 210 88 99 39 203
79 232 91 l51 20 32 -49 c154 -241 502 -316 755 -165 72 43 135 103 176 167
l31 47 51 -20 c29 -12 135 -52 237 -91 102 -38 199 -78 215 -88 77 -48 145
-148 165 -243 6 -30 9 -133 8 -242 l-3 -190 -127 -3 -127 -3 -3 222 c-3 218
-3 221 -27 240 -30 25 -76 24 -101 -1 -19 -19 -20 -33 -20 -240 l0 -220 -305
0 -306 0 -24 -25 c-32 -31 -32 -69 0 -100 l24 -25 517 0 c503 0 519 1 560 21
26 12 53 36 66 57 22 35 23 49 26 245 2 130 -1 236 -8 279 -28 162 -145 315
-292 382 -40 18 -209 84 -375 147 l-303 114 0 50 c0 48 3 53 58 111 88 93 152
232 152 330 0 30 2 32 48 39 96 14 158 57 199 138 57 113 13 270 -89 323 l-28
15 0 202 c0 202 0 204 -27 258 -35 68 -91 108 -163 117 -32 4 -55 13 -60 22
-89 199 -119 210 -540 209 -135 -1 -272 -5 -305 -10z m651 -164 c17 -13 34
-41 44 -73 28 -85 66 -116 160 -128 90 -12 90 -11 90 -258 0 -226 -1 -232 -46
-216 -32 12 -61 54 -68 99 -6 42 -44 81 -77 81 -22 0 -69 -21 -69 -31 0 -19
-95 -109 -135 -128 -43 -20 -60 -21 -379 -21 -362 0 -358 -1 -372 55 -3 13 -4
117 -2 232 4 231 8 250 72 321 41 44 91 72 151 83 22 4 167 7 322 6 267 -2
283 -3 309 -22z m108 -760 c21 -19 42 -35 47 -35 7 0 9 -74 7 -207 l-3 -208
-33 -63 c-42 -81 -103 -142 -184 -184 -61 -32 -67 -33 -178 -33 -108 0 -119 2
-180 31 -83 39 -155 111 -194 194 -31 64 -31 67 -34 252 l-3 187 273 3 273 3
58 27 c32 15 70 37 84 48 14 11 27 20 28 20 1 0 19 -16 39 -35z m317 -46 c16
-30 14 -85 -5 -113 -16 -25 -78 -52 -96 -41 -5 3 -10 34 -10 68 0 61 1 62 38
83 48 28 59 28 73 3z m-1271 -13 l45 -13 3 -58 c2 -32 -1 -62 -7 -68 -14 -14
-79 11 -97 39 -23 35 -20 114 4 114 4 0 27 -6 52 -14z m605 -826 c50 0 114 6
143 14 l52 13 0 -34 c0 -65 35 -107 113 -132 20 -7 37 -18 37 -25 0 -23 -76
-100 -132 -134 -150 -90 -357 -70 -489 47 -51 45 -88 101 -67 101 7 0 36 11
65 24 58 27 83 64 83 120 l0 34 53 -14 c28 -7 93 -14 142 -14z"/>
</g>
</svg>
