<?xml version="1.0" encoding="UTF-8"?>
<svg version="1.1" xmlns="http://www.w3.org/2000/svg" width="512" height="512">
<path d="M0 0 C1.01790619 0.00215515 2.03581238 0.0043103 3.08456421 0.00653076 C17.69363523 0.05620146 32.02575853 0.30709809 46.375 3.3125 C47.34985352 3.51117676 48.32470703 3.70985352 49.32910156 3.91455078 C88.37782454 12.08284366 124.83813271 27.70153311 156.375 52.3125 C157.27089844 52.99699219 158.16679687 53.68148437 159.08984375 54.38671875 C174.64917637 66.50480877 189.28601276 80.73459548 201.375 96.3125 C202.138125 97.24707031 202.90125 98.18164062 203.6875 99.14453125 C230.72873178 132.90273567 247.92895355 174.68875705 254.375 217.3125 C254.55160156 218.43495117 254.72820312 219.55740234 254.91015625 220.71386719 C256.5670586 232.32697743 256.77373513 243.84429945 256.75 255.5625 C256.74918427 257.08052216 256.74918427 257.08052216 256.74835205 258.62921143 C256.7076051 275.16367395 255.78386907 291.08314864 252.375 307.3125 C252.16601074 308.32779785 251.95702148 309.3430957 251.74169922 310.38916016 C243.84945344 347.53296555 227.74595578 382.39695445 204.375 412.3125 C203.61574219 413.28445313 202.85648437 414.25640625 202.07421875 415.2578125 C189.73986402 430.63741644 175.93895499 445.19015196 160.375 457.3125 C159.43914062 458.07691406 158.50328125 458.84132813 157.5390625 459.62890625 C125.58628299 485.2157721 86.41988322 501.72551276 46.375 509.3125 C45.56562988 509.47621094 44.75625977 509.63992188 43.92236328 509.80859375 C13.88110013 515.67977137 -20.7615176 514.58512909 -50.625 508.3125 C-52.14794678 507.99901611 -52.14794678 507.99901611 -53.70166016 507.67919922 C-110.88001329 495.5300505 -164.73467798 462.73512213 -200.625 416.3125 C-201.38683594 415.37921875 -202.14867187 414.4459375 -202.93359375 413.484375 C-226.93121844 383.53533939 -242.90462704 347.22950829 -251 309.875 C-251.2386377 308.77551025 -251.47727539 307.67602051 -251.72314453 306.54321289 C-255.14135951 289.89331758 -256.00205986 273.64205979 -255.9375 256.6875 C-255.93534485 255.66959381 -255.9331897 254.65168762 -255.93096924 253.60293579 C-255.88129854 238.99386477 -255.63040191 224.66174147 -252.625 210.3125 C-252.42632324 209.33764648 -252.22764648 208.36279297 -252.02294922 207.35839844 C-241.93598313 159.13741149 -219.89911449 114.53770064 -185.40722656 79.14160156 C-183.63301167 77.32072238 -181.87518486 75.48496071 -180.1171875 73.6484375 C-173.01562574 66.30860161 -165.60158994 59.73928631 -157.40917969 53.64355469 C-155.59628085 52.2910746 -153.80174757 50.91656557 -152.0078125 49.5390625 C-143.60124472 43.15234877 -134.85975388 37.61076633 -125.65234375 32.45166016 C-123.78933792 31.40484113 -121.94116361 30.33571119 -120.09375 29.26171875 C-83.4933446 8.69459905 -41.63834482 -0.15855121 0 0 Z M-134.625 70.3125 C-135.22602539 70.75948242 -135.82705078 71.20646484 -136.44628906 71.66699219 C-145.3539371 78.33692379 -153.59849391 85.61327244 -161.625 93.3125 C-162.44871094 94.09496094 -163.27242187 94.87742187 -164.12109375 95.68359375 C-172.20999061 103.54818844 -179.00708741 112.37599288 -185.6875 121.4375 C-186.17718262 122.10152832 -186.66686523 122.76555664 -187.17138672 123.44970703 C-189.54612136 126.13501563 -189.54612136 126.13501563 -190.625 129.3125 C-184.52088023 129.37288624 -178.41686509 129.41215376 -172.3125 129.4375 C-170.93750336 129.4438295 -170.93750336 129.4438295 -169.534729 129.45028687 C-154.83669352 129.49978976 -140.25584833 128.98414572 -125.6081543 127.76025391 C-124.24658236 127.6591753 -122.88501011 127.55810085 -121.5234375 127.45703125 C-119.77039307 127.30778198 -119.77039307 127.30778198 -117.98193359 127.15551758 C-113.78396766 127.35182973 -111.34078885 128.37348746 -107.625 130.3125 C-106.47506634 132.61236731 -106.3933071 134.12719088 -106.3125 136.6875 C-106.25642578 137.84378906 -106.25642578 137.84378906 -106.19921875 139.0234375 C-106.80640912 142.28778204 -107.97291541 143.3481521 -110.625 145.3125 C-113.8046875 146.10546875 -113.8046875 146.10546875 -117.5 146.5 C-118.1504126 146.57331543 -118.8008252 146.64663086 -119.47094727 146.72216797 C-126.17102996 147.44750543 -132.89831898 147.91864194 -139.625 148.3125 C-138.17650659 155.54131532 -136.04571388 162.36315821 -133.64453125 169.328125 C-133.24381409 170.5038356 -132.84309692 171.6795462 -132.43023682 172.8908844 C-131.56012466 175.44281565 -130.68842289 177.9941369 -129.81399536 180.54458618 C-127.6805897 186.76832185 -125.56214199 192.99715427 -123.44346428 199.22591591 C-122.94740359 200.68422067 -122.45118235 202.14247082 -121.95480537 203.60066795 C-116.36964153 220.01054212 -110.89174472 236.4556498 -105.42520905 252.90534592 C-98.95256793 272.38053653 -92.46196114 291.84747171 -85.78707886 311.2545166 C-76.18145215 339.19939174 -66.94394198 367.27104713 -57.625 395.3125 C-55.18106615 392.86856615 -54.65847225 390.9348749 -53.55549622 387.6590271 C-53.14742233 386.45620087 -52.73934845 385.25337463 -52.31890869 384.01409912 C-51.87107876 382.67399599 -51.42339068 381.33384545 -50.97583008 379.99365234 C-50.50148029 378.58747831 -50.02665074 377.18146604 -49.55137634 375.77560425 C-48.26039144 371.95088922 -46.97739237 368.12354227 -45.69668412 364.29537535 C-44.89612891 361.90321151 -44.09409213 359.51154957 -43.29157066 357.12004471 C-40.49148477 348.77480214 -37.69862188 340.42717629 -34.91137695 332.07763672 C-32.31443532 324.29890868 -29.70061914 316.52599014 -27.07909471 308.75551641 C-24.82874254 302.08244473 -22.5911337 295.40518668 -20.36315268 288.72461283 C-19.03248947 284.73551007 -17.69660071 280.74834674 -16.34754372 276.76542282 C-15.07796155 273.01589881 -13.82433347 269.26140921 -12.58257484 265.50258255 C-12.12512522 264.12688309 -11.6620689 262.75303282 -11.1928978 261.38128662 C-7.82974018 251.53314574 -6.85228468 245.4903645 -10.47583008 235.60375977 C-10.85784576 234.54862686 -11.23986145 233.49349396 -11.63345337 232.40638733 C-12.04960907 231.28356857 -12.46576477 230.16074982 -12.89453125 229.00390625 C-13.32728363 227.81554672 -13.76003601 226.62718719 -14.2059021 225.40281677 C-15.36900616 222.21363409 -16.5393583 219.02730885 -17.71343613 215.84216309 C-18.92239049 212.55763188 -20.12260695 209.26991209 -21.32348633 205.98242188 C-22.7550007 202.06532358 -24.18750625 198.14859952 -25.62461853 194.23355103 C-28.31522026 186.90332334 -30.9842527 179.56598914 -33.6171875 172.21484375 C-34.17596205 170.65875004 -34.73479665 169.10267789 -35.29370117 167.54663086 C-36.04638291 165.45063511 -36.79766829 163.35420765 -37.54385376 161.25588989 C-38.20516737 159.3979518 -38.87382045 157.54263077 -39.54296875 155.6875 C-39.90156982 154.68460938 -40.2601709 153.68171875 -40.62963867 152.6484375 C-41.51054912 150.1780682 -41.51054912 150.1780682 -43.625 148.3125 C-45.81541222 147.88215801 -45.81541222 147.88215801 -48.3515625 147.75 C-49.30160156 147.67523438 -50.25164062 147.60046875 -51.23046875 147.5234375 C-52.72513672 147.41902344 -52.72513672 147.41902344 -54.25 147.3125 C-60.93576882 146.83431256 -67.16706112 146.15324267 -73.625 144.3125 C-74.96955305 139.31688419 -75.61691198 135.13761805 -73.0625 130.4375 C-69.35030915 127.20123105 -65.6939609 127.2251083 -60.94311523 127.42578125 C-58.77081704 127.58619286 -56.59931278 127.75752898 -54.4284668 127.93652344 C-37.73294512 129.31254564 -21.05939348 129.55880449 -4.3125 129.5625 C-2.53190186 129.56337616 -2.53190186 129.56337616 -0.71533203 129.56427002 C15.60199415 129.54955221 31.84980077 129.17869441 48.1105957 127.76074219 C59.86374055 126.83554367 59.86374055 126.83554367 65.375 130.3125 C67.51748745 134.5974749 66.55260404 139.83245919 65.375 144.3125 C58.57230068 146.27735733 51.92301708 146.92323081 44.875 147.4375 C43.21210938 147.56705078 43.21210938 147.56705078 41.515625 147.69921875 C38.80248819 147.90972074 36.08903606 148.11398984 33.375 148.3125 C34.73321121 154.91761856 36.53402584 161.21047998 38.68457031 167.59765625 C39.17796906 169.08091904 39.17796906 169.08091904 39.68133545 170.59414673 C40.7675863 173.85589874 41.86026806 177.11545602 42.953125 180.375 C43.72420911 182.68518511 44.49493374 184.99549023 45.26531982 187.3059082 C46.88670805 192.16547025 48.51102884 197.0240382 50.13769531 201.88183594 C52.17873596 207.97718183 54.21483232 214.07416267 56.24895668 220.17181969 C63.94952572 243.25373628 71.69020542 266.32074953 79.57907486 289.33903885 C86.0021497 308.08334946 92.25828077 326.88216911 98.5 345.6875 C100.41043257 351.44275738 102.32202073 357.19762696 104.23608017 362.95167923 C104.9817465 365.19501789 105.72557365 367.43896014 106.4692688 369.68295288 C108.98910132 377.26953603 111.58408045 384.82036588 114.375 392.3125 C116.68265815 391.44161348 116.68265815 391.44161348 117.41465759 388.55596924 C117.78563065 387.31965759 118.1566037 386.08334595 118.53881836 384.80957031 C118.84925079 383.78659348 118.84925079 383.78659348 119.16595459 382.74295044 C119.85636288 380.46101437 120.53557666 378.17590003 121.21484375 375.890625 C121.70063986 374.2765552 122.18710763 372.66268742 122.67420959 371.04901123 C123.96742023 366.7579952 125.25116152 362.46420033 126.53308105 358.1697998 C127.79297768 353.95521375 129.06192706 349.74335808 130.33007812 345.53125 C132.60087234 337.98438105 134.85883658 330.43374457 137.11134911 322.88140106 C138.62382798 317.8144525 140.1473163 312.75097797 141.68027782 307.69018936 C142.67979598 304.38780808 143.67418635 301.08389438 144.66784859 297.77974701 C145.13049327 296.24561411 145.59530798 294.71213339 146.06263542 293.17942047 C148.52764701 285.09062464 150.77395144 276.99655894 152.62475586 268.74316406 C152.78799882 268.01769253 152.95124178 267.29222099 153.1194315 266.54476547 C160.68265469 231.66060948 148.7586124 199.96821502 130.30810547 170.68579102 C119.93402972 154.17237698 111.52282276 136.87017652 115.5 116.9375 C118.07332585 106.54799752 123.62561565 97.86863737 132.55078125 91.84375 C139.4560626 87.95599749 146.57070189 87.06594088 154.375 86.3125 C134.27844699 65.53598843 106.49907553 49.73674569 79.375 40.3125 C78.59962891 40.03599609 77.82425781 39.75949219 77.02539062 39.47460938 C6.6650052 14.65107601 -74.56259103 25.25757234 -134.625 70.3125 Z M203.375 150.3125 C203.39071045 151.19172119 203.4064209 152.07094238 203.42260742 152.97680664 C204.02069376 191.69595714 196.71021284 224.86774693 183.4815979 261.1864624 C178.94218483 273.65175852 174.62156636 286.18222145 170.375 298.75 C169.02590302 302.73607184 167.67554528 306.72171472 166.32421875 310.70703125 C165.99225494 311.68607422 165.66029114 312.66511719 165.31826782 313.67382812 C161.99854656 323.44846694 158.59998722 333.1949359 155.1875 342.9375 C149.13894715 360.21558045 143.14841419 377.51327329 137.18615341 394.82128143 C136.51472185 396.76977717 135.84273549 398.71808064 135.17056274 400.6663208 C129.13000041 418.17991083 123.19695523 435.72516003 117.375 453.3125 C120.59482221 452.05879043 123.36982069 450.80373242 126.1953125 448.80859375 C127.23715698 448.07564087 127.23715698 448.07564087 128.30004883 447.32788086 C129.02603271 446.80718018 129.7520166 446.28647949 130.5 445.75 C131.25627686 445.21060791 132.01255371 444.67121582 132.79174805 444.11547852 C159.77060219 424.71750695 182.98948459 400.33907455 199.375 371.3125 C200.04982422 370.12237305 200.04982422 370.12237305 200.73828125 368.90820312 C218.58007959 337.06129923 229.41630385 300.95136602 230.375 264.3125 C230.41496094 263.10722656 230.45492187 261.90195312 230.49609375 260.66015625 C230.96763642 233.33841921 226.52524641 206.04463525 217.375 180.3125 C217.13136719 179.60947754 216.88773437 178.90645508 216.63671875 178.18212891 C213.26467024 168.48748943 209.16929783 159.39046038 204.375 150.3125 C204.045 150.3125 203.715 150.3125 203.375 150.3125 Z M-210.625 165.3125 C-234.71835607 221.17731463 -235.6175045 283.41613771 -213.78515625 340.1640625 C-206.53258445 358.37057039 -197.34395778 375.59815833 -185.625 391.3125 C-185.17656738 391.91642578 -184.72813477 392.52035156 -184.26611328 393.14257812 C-177.59758635 402.04675452 -170.32168341 410.2886462 -162.625 418.3125 C-161.84253906 419.13621094 -161.06007813 419.95992187 -160.25390625 420.80859375 C-144.56884831 436.94099737 -124.15533137 451.92720566 -103.625 461.3125 C-102.965 461.3125 -102.305 461.3125 -101.625 461.3125 C-103.78743007 453.75283966 -106.32878782 446.37062906 -109.01953125 438.984375 C-109.4430336 437.81528091 -109.86653595 436.64618683 -110.3028717 435.44166565 C-111.44201933 432.2992266 -112.58367439 429.15772314 -113.72670746 426.01669693 C-114.68612132 423.37896016 -115.64348968 420.74048274 -116.60092926 418.10202885 C-122.39475695 402.13727684 -128.22609821 386.18662536 -134.11474609 370.2565918 C-139.63774775 355.31083066 -145.10089336 340.3432742 -150.5625 325.375 C-151.05759674 324.01819861 -151.55269359 322.66139726 -152.04779053 321.30459595 C-154.05927686 315.79200181 -156.07055931 310.27933332 -158.08154297 304.76655579 C-161.28465667 295.98576583 -164.48883451 287.20536533 -167.69435883 278.42545509 C-168.41089202 276.46282844 -169.12735739 274.50017705 -169.84381104 272.53752136 C-171.97646592 266.69556934 -174.10962182 260.85380214 -176.24499512 255.01284313 C-177.42797986 251.77691068 -178.6105731 248.54083525 -179.79296875 245.3046875 C-180.02765617 244.66239008 -180.2623436 244.02009266 -180.50414276 243.35833168 C-183.84439219 234.21435556 -187.16606112 225.06378197 -190.47622681 215.90887451 C-192.35035116 210.7258601 -194.22911719 205.5445319 -196.10894203 200.36358261 C-197.64772705 196.12119216 -199.18018981 191.87658694 -200.70805073 187.63025093 C-201.42240465 185.64841924 -202.14002487 183.66780886 -202.85917664 181.68771362 C-203.7379522 179.26811369 -204.61143295 176.84658218 -205.47883606 174.42288208 C-206.05935982 172.83224442 -206.05935982 172.83224442 -206.65161133 171.20947266 C-206.98638992 170.28252594 -207.32116852 169.35557922 -207.66609192 168.40054321 C-208.43801008 166.14508815 -208.43801008 166.14508815 -210.625 165.3125 Z M4.375 279.3125 C1.32124568 285.83457557 -1.14960025 292.44514103 -3.42578125 299.2734375 C-3.77868225 300.31965775 -4.13158325 301.36587799 -4.49517822 302.44380188 C-5.25207139 304.68852941 -6.00713623 306.93387412 -6.76052856 309.17977905 C-8.77351351 315.17906608 -10.8009825 321.17345354 -12.828125 327.16796875 C-13.44059837 328.98029747 -13.44059837 328.98029747 -14.06544495 330.82923889 C-17.70306411 341.57753277 -21.4291339 352.29344434 -25.1875 363 C-30.98260583 379.51994879 -36.64664929 396.08187412 -42.25854492 412.66491699 C-46.05603735 423.88438482 -49.87774794 435.09344063 -53.8125 446.265625 C-54.14330063 447.20541702 -54.47410126 448.14520905 -54.81492615 449.11347961 C-56.3730212 453.53501022 -57.93789308 457.95400499 -59.51196289 462.36987305 C-60.0614367 463.92233638 -60.61083891 465.47482505 -61.16015625 467.02734375 C-61.41236938 467.72792908 -61.66458252 468.4285144 -61.92443848 469.15032959 C-62.93502117 472.01634787 -63.625 474.24737055 -63.625 477.3125 C-43.3056005 482.31470243 -43.3056005 482.31470243 -22.625 485.3125 C-21.50996094 485.42207031 -20.39492187 485.53164063 -19.24609375 485.64453125 C12.64016111 488.36520146 45.37783158 484.59050518 75.375 473.3125 C73.39996222 466.4930192 71.19486797 459.79560979 68.77734375 453.12109375 C68.43136642 452.15964447 68.0853891 451.19819519 67.72892761 450.20761108 C66.5929951 447.05402817 65.45292018 443.90196257 64.3125 440.75 C63.50433697 438.51068158 62.69623256 436.271342 61.88818359 434.03198242 C55.74860487 417.03525103 49.53054737 400.06776718 43.28466797 383.10986328 C37.46158057 367.29629671 31.69033115 351.46425119 25.9375 335.625 C19.11525818 316.84235029 12.27757605 298.06579635 5.375 279.3125 C5.045 279.3125 4.715 279.3125 4.375 279.3125 Z " fill="#000000" transform="translate(255.625,-0.3125)"/>
</svg>
